<?xml version="1.0" standalone="no"?>
<!DOCTYPE svg PUBLIC "-//W3C//DTD SVG 20010904//EN"
 "http://www.w3.org/TR/2001/REC-SVG-20010904/DTD/svg10.dtd">
<svg version="1.0" xmlns="http://www.w3.org/2000/svg"
 width="256.000000pt" height="256.000000pt" viewBox="0 0 256.000000 256.000000"
 preserveAspectRatio="xMidYMid meet">
<metadata>
Created by potrace 1.14, written by Peter Selinger 2001-2017
</metadata>
<g transform="translate(0.000000,256.000000) scale(0.100000,-0.100000)"
fill="#000000" stroke="none">
<path d="M1123 2394 c4 -8 -16 -14 -63 -18 -39 -4 -70 -11 -70 -15 0 -4 -7 -8
-15 -8 -19 0 -139 -35 -145 -43 -3 -3 -26 -14 -52 -24 -27 -10 -48 -22 -48
-27 0 -5 -6 -9 -13 -9 -16 0 -127 -71 -127 -81 0 -5 -5 -9 -11 -9 -11 0 -58
-41 -117 -103 -68 -72 -81 -87 -74 -87 4 0 -1 -5 -10 -11 -10 -5 -18 -17 -18
-24 0 -8 -4 -15 -9 -15 -5 0 -16 -12 -24 -27 -8 -16 -28 -53 -44 -84 -27 -49
-70 -154 -77 -184 -2 -5 -8 -30 -15 -55 -14 -47 -21 -84 -26 -137 -1 -17 -6
-36 -9 -42 -4 -6 -2 -11 4 -11 6 0 8 -5 3 -12 -11 -19 -12 -37 -2 -44 5 -3 6
-11 2 -17 -12 -19 -11 -77 1 -77 7 0 8 -3 1 -8 -14 -10 -15 -52 -2 -52 8 0 7
-4 0 -11 -8 -8 -8 -20 -3 -35 5 -13 6 -26 1 -28 -9 -6 -8 -46 2 -62 3 -6 3
-14 -1 -18 -11 -12 -9 -106 2 -106 8 0 8 -3 1 -8 -14 -9 -14 -65 0 -74 7 -5 6
-8 -1 -8 -12 0 -13 -38 -1 -56 3 -6 3 -14 -1 -18 -11 -12 -9 -70 3 -78 6 -5 5
-8 -3 -8 -9 0 -10 -5 -2 -19 5 -11 6 -22 2 -25 -10 -6 -10 -46 1 -63 4 -6 4
-14 -1 -17 -10 -6 -10 -116 0 -132 4 -6 4 -14 1 -18 -11 -10 -11 -56 -1 -56 5
0 6 -6 1 -12 -11 -19 -12 -37 -2 -44 6 -3 5 -12 -3 -21 -14 -17 -14 -17 4 -37
10 -10 15 -11 20 -2 6 8 13 8 28 -2 11 -7 20 -8 20 -4 0 5 20 9 45 9 25 1 46
2 48 3 1 1 13 3 27 6 49 7 156 37 197 55 22 10 44 15 47 12 3 -4 6 -1 6 6 0 8
6 11 16 7 8 -3 13 -2 9 3 -3 5 8 12 25 16 16 4 30 10 30 15 0 4 8 10 18 14 9
3 31 15 47 26 17 11 37 23 45 27 8 4 24 17 36 30 12 13 25 23 29 23 8 0 127
120 168 170 15 19 27 39 27 46 0 6 7 14 15 18 8 3 15 12 15 21 0 8 5 15 10 15
6 0 10 7 10 15 0 8 5 15 10 15 6 0 9 3 8 8 0 4 10 30 22 57 13 28 23 53 22 58
-1 4 3 7 8 7 5 0 9 3 8 8 0 4 1 14 5 22 19 50 38 122 44 173 14 105 18 2 18
-440 l0 -484 50 2 c85 4 239 56 258 86 4 7 14 13 21 13 7 0 39 27 72 59 72 72
81 83 96 116 6 14 15 25 20 25 4 0 8 5 8 10 0 6 7 27 17 48 21 48 19 41 28 90
9 49 30 52 30 4 -1 -18 3 -32 7 -32 4 0 8 -7 8 -15 0 -9 6 -30 13 -48 8 -18
14 -35 15 -40 1 -4 11 -17 22 -29 11 -12 20 -27 20 -33 0 -6 25 -38 55 -70 30
-32 55 -54 55 -49 0 5 7 -1 15 -12 8 -12 28 -27 45 -34 16 -7 30 -16 30 -20 0
-4 10 -11 23 -15 28 -9 33 -11 87 -30 25 -9 75 -19 111 -22 l65 -5 0 586 1
585 -66 -5 c-36 -3 -73 -8 -81 -11 -19 -8 -29 -11 -58 -17 -18 -4 -9 9 38 54
33 33 57 60 53 60 -4 0 -3 4 3 8 32 21 94 172 98 235 0 15 4 27 8 27 10 0 5
30 -6 49 -6 10 -5 12 2 7 8 -5 11 8 9 44 -1 27 -5 50 -8 50 -3 0 -4 14 -3 30
1 17 -2 33 -7 36 -5 3 -9 15 -9 28 0 13 -14 52 -32 87 -34 68 -37 73 -80 121
-15 16 -28 33 -30 37 -2 4 -23 22 -48 41 -25 19 -47 37 -50 41 -8 8 -77 39
-89 39 -6 0 -11 5 -11 11 0 5 -4 8 -9 4 -5 -3 -12 -1 -15 4 -3 5 -27 12 -53
16 -27 5 -55 10 -63 12 -57 14 -170 4 -257 -23 -32 -10 -61 -17 -65 -16 -5 1
-8 -2 -8 -8 0 -5 -4 -10 -10 -10 -11 0 -84 -46 -119 -75 -49 -41 -105 -110
-128 -156 -10 -22 -22 -39 -27 -39 -4 0 -6 -7 -2 -15 3 -8 1 -15 -4 -15 -5 0
-13 -18 -16 -40 -14 -88 -23 -30 -23 158 0 108 0 217 -1 242 l0 45 -45 -1
c-25 -1 -49 -4 -52 -8 -3 -3 -13 0 -21 7 -10 7 -13 7 -9 1z m147 -800 c0 -45
81 -176 152 -247 44 -44 66 -74 35 -48 -8 6 -17 8 -20 4 -4 -3 -7 -1 -7 5 0 7
-3 11 -7 10 -5 -1 -24 2 -43 7 -19 4 -53 9 -75 10 -22 2 -43 3 -46 4 -4 0 -7
60 -8 132 0 72 -3 135 -6 140 -4 5 1 6 9 3 9 -3 16 -12 16 -20z m365 -377 c6
-1 13 -6 16 -10 3 -4 28 -10 55 -14 27 -3 52 -11 56 -17 4 -6 8 -7 8 -1 0 6
30 10 68 11 92 1 142 7 148 16 3 5 10 6 15 3 5 -4 9 -2 9 4 0 6 7 8 16 4 9 -3
20 0 25 8 6 9 9 10 9 2 0 -7 -10 -17 -22 -24 -33 -18 -103 -97 -121 -137 -6
-15 -17 -33 -24 -40 -7 -7 -18 -32 -25 -55 -6 -23 -14 -44 -18 -47 -3 -3 -6
-14 -7 -25 -4 -45 -19 -84 -20 -53 -1 28 -13 89 -22 106 -5 9 -17 36 -26 60
-10 23 -22 42 -27 42 -4 0 -8 6 -8 13 0 8 -9 25 -21 38 -12 13 -29 33 -38 44
-9 11 -34 36 -56 54 -22 19 -31 31 -20 27 11 -4 25 -8 30 -9z"/>
</g>
</svg>
